<mxfile host="Electron" modified="2023-04-29T04:22:20.155Z" agent="Mozilla/5.0 (Windows NT 10.0; Win64; x64) AppleWebKit/537.36 (KHTML, like Gecko) draw.io/21.1.2 Chrome/106.0.5249.199 Electron/21.4.3 Safari/537.36" etag="L8pa-Cz_XTY3BZlqEYZE" version="21.1.2" type="device">
  <diagram id="fO9pJ9hmjl-DQnfwtDK7" name="Страница 1">
    <mxGraphModel dx="312" dy="202" grid="1" gridSize="10" guides="1" tooltips="1" connect="1" arrows="1" fold="1" page="1" pageScale="1" pageWidth="1169" pageHeight="827" math="1" shadow="0">
      <root>
        <mxCell id="0" />
        <mxCell id="1" parent="0" />
        <mxCell id="NyUPaynE3EMtB2uFRSFc-2" value="&lt;div style=&quot;font-size: 14px;&quot;&gt;&lt;span style=&quot;background-color: initial;&quot;&gt;&lt;font style=&quot;font-size: 14px;&quot;&gt;MicroSD card (SDSC)&lt;/font&gt;&lt;/span&gt;&lt;/div&gt;&lt;font style=&quot;font-size: 14px;&quot;&gt;&lt;div style=&quot;&quot;&gt;&lt;span style=&quot;background-color: initial;&quot;&gt;\(\leqslant\) 2 GB&lt;/span&gt;&lt;/div&gt;&lt;/font&gt;" style="shape=card;whiteSpace=wrap;html=1;fillColor=#dae8fc;strokeColor=#6c8ebf;align=center;" parent="1" vertex="1">
          <mxGeometry x="161" y="327" width="80" height="100" as="geometry" />
        </mxCell>
        <mxCell id="NyUPaynE3EMtB2uFRSFc-4" value="&lt;font style=&quot;font-size: 22px;&quot;&gt;FPGA&lt;/font&gt;" style="whiteSpace=wrap;html=1;aspect=fixed;fillColor=#d5e8d4;strokeColor=#82b366;" parent="1" vertex="1">
          <mxGeometry x="135" y="127" width="130" height="130" as="geometry" />
        </mxCell>
        <mxCell id="NyUPaynE3EMtB2uFRSFc-5" value="" style="endArrow=classicThin;html=1;rounded=0;fontSize=22;entryX=0.804;entryY=1.003;entryDx=0;entryDy=0;exitX=0.978;exitY=0;exitDx=0;exitDy=0;exitPerimeter=0;startArrow=classicThin;startFill=1;endFill=1;entryPerimeter=0;" parent="1" source="NyUPaynE3EMtB2uFRSFc-2" edge="1">
          <mxGeometry width="50" height="50" relative="1" as="geometry">
            <mxPoint x="239.27999999999997" y="326.5" as="sourcePoint" />
            <mxPoint x="239.51999999999998" y="257.39000000000004" as="targetPoint" />
          </mxGeometry>
        </mxCell>
        <mxCell id="NyUPaynE3EMtB2uFRSFc-6" value="" style="endArrow=classicThin;html=1;rounded=0;fontSize=22;entryX=0.755;entryY=1.003;entryDx=0;entryDy=0;exitX=0.897;exitY=0;exitDx=0;exitDy=0;exitPerimeter=0;startArrow=classicThin;startFill=1;endFill=1;entryPerimeter=0;" parent="1" source="NyUPaynE3EMtB2uFRSFc-2" target="NyUPaynE3EMtB2uFRSFc-4" edge="1">
          <mxGeometry width="50" height="50" relative="1" as="geometry">
            <mxPoint x="232.72000000000003" y="327.40000000000003" as="sourcePoint" />
            <mxPoint x="233.2199999999999" y="257.4999999999999" as="targetPoint" />
          </mxGeometry>
        </mxCell>
        <mxCell id="NyUPaynE3EMtB2uFRSFc-8" value="" style="endArrow=classicThin;html=1;rounded=0;fontSize=22;exitX=0.824;exitY=0;exitDx=0;exitDy=0;exitPerimeter=0;startArrow=classicThin;startFill=1;endFill=1;entryX=0.706;entryY=1.003;entryDx=0;entryDy=0;entryPerimeter=0;" parent="1" source="NyUPaynE3EMtB2uFRSFc-2" edge="1">
          <mxGeometry width="50" height="50" relative="1" as="geometry">
            <mxPoint x="226.88" y="326.8" as="sourcePoint" />
            <mxPoint x="226.77999999999997" y="257.39000000000004" as="targetPoint" />
          </mxGeometry>
        </mxCell>
        <mxCell id="NyUPaynE3EMtB2uFRSFc-9" value="" style="endArrow=classicThin;html=1;rounded=0;fontSize=22;entryX=0.656;entryY=1.003;entryDx=0;entryDy=0;exitX=0.746;exitY=0;exitDx=0;exitDy=0;exitPerimeter=0;startArrow=classicThin;startFill=1;endFill=1;entryPerimeter=0;" parent="1" source="NyUPaynE3EMtB2uFRSFc-2" target="NyUPaynE3EMtB2uFRSFc-4" edge="1">
          <mxGeometry width="50" height="50" relative="1" as="geometry">
            <mxPoint x="220.68000000000006" y="326.6" as="sourcePoint" />
            <mxPoint x="220.2199999999999" y="257.4999999999999" as="targetPoint" />
          </mxGeometry>
        </mxCell>
        <mxCell id="NyUPaynE3EMtB2uFRSFc-12" value="D[3:0]" style="text;html=1;strokeColor=none;fillColor=default;align=center;verticalAlign=middle;whiteSpace=wrap;rounded=0;fontSize=12;" parent="1" vertex="1">
          <mxGeometry x="210" y="269" width="40" height="20" as="geometry" />
        </mxCell>
        <mxCell id="NyUPaynE3EMtB2uFRSFc-17" value="" style="endArrow=classic;html=1;rounded=0;fontSize=12;exitX=0.392;exitY=0.005;exitDx=0;exitDy=0;exitPerimeter=0;entryX=0.442;entryY=1;entryDx=0;entryDy=0;entryPerimeter=0;startArrow=classic;startFill=1;endFill=1;" parent="1" edge="1">
          <mxGeometry width="50" height="50" relative="1" as="geometry">
            <mxPoint x="203.36" y="327.5" as="sourcePoint" />
            <mxPoint x="203.46000000000004" y="257" as="targetPoint" />
          </mxGeometry>
        </mxCell>
        <mxCell id="NyUPaynE3EMtB2uFRSFc-18" value="CMD" style="edgeLabel;html=1;align=center;verticalAlign=middle;resizable=0;points=[];fontSize=12;" parent="NyUPaynE3EMtB2uFRSFc-17" vertex="1" connectable="0">
          <mxGeometry x="0.1022" relative="1" as="geometry">
            <mxPoint y="5" as="offset" />
          </mxGeometry>
        </mxCell>
        <mxCell id="NyUPaynE3EMtB2uFRSFc-19" value="" style="endArrow=none;html=1;rounded=0;fontSize=12;exitX=0.312;exitY=0.051;exitDx=0;exitDy=0;exitPerimeter=0;entryX=0.331;entryY=0.999;entryDx=0;entryDy=0;entryPerimeter=0;startArrow=classic;startFill=1;" parent="1" source="NyUPaynE3EMtB2uFRSFc-2" edge="1">
          <mxGeometry width="50" height="50" relative="1" as="geometry">
            <mxPoint x="185.95999999999992" y="330" as="sourcePoint" />
            <mxPoint x="186.02999999999997" y="256.87" as="targetPoint" />
          </mxGeometry>
        </mxCell>
        <mxCell id="NyUPaynE3EMtB2uFRSFc-20" value="CLK" style="edgeLabel;html=1;align=center;verticalAlign=middle;resizable=0;points=[];fontSize=12;" parent="NyUPaynE3EMtB2uFRSFc-19" vertex="1" connectable="0">
          <mxGeometry x="0.1022" relative="1" as="geometry">
            <mxPoint x="-2" y="19" as="offset" />
          </mxGeometry>
        </mxCell>
        <mxCell id="NyUPaynE3EMtB2uFRSFc-21" value="" style="endArrow=none;html=1;rounded=0;fontSize=12;entryX=0.331;entryY=0.999;entryDx=0;entryDy=0;entryPerimeter=0;exitX=0.112;exitY=0.208;exitDx=0;exitDy=0;exitPerimeter=0;" parent="1" source="NyUPaynE3EMtB2uFRSFc-2" edge="1">
          <mxGeometry width="50" height="50" relative="1" as="geometry">
            <mxPoint x="170" y="347" as="sourcePoint" />
            <mxPoint x="170.78999999999996" y="256.9999999999999" as="targetPoint" />
          </mxGeometry>
        </mxCell>
        <mxCell id="NyUPaynE3EMtB2uFRSFc-22" value="&lt;font style=&quot;font-size: 6px;&quot;&gt;GND&lt;/font&gt;" style="edgeLabel;html=1;align=center;verticalAlign=middle;resizable=0;points=[];fontSize=12;" parent="NyUPaynE3EMtB2uFRSFc-21" vertex="1" connectable="0">
          <mxGeometry x="0.1022" relative="1" as="geometry">
            <mxPoint x="1" y="-27" as="offset" />
          </mxGeometry>
        </mxCell>
        <mxCell id="NyUPaynE3EMtB2uFRSFc-23" value="" style="endArrow=none;html=1;rounded=0;fontSize=12;exitX=0.019;exitY=0.285;exitDx=0;exitDy=0;exitPerimeter=0;entryX=0.213;entryY=0.997;entryDx=0;entryDy=0;entryPerimeter=0;" parent="1" source="NyUPaynE3EMtB2uFRSFc-2" target="NyUPaynE3EMtB2uFRSFc-4" edge="1">
          <mxGeometry width="50" height="50" relative="1" as="geometry">
            <mxPoint x="161" y="340.73" as="sourcePoint" />
            <mxPoint x="161.78999999999996" y="256.9999999999999" as="targetPoint" />
          </mxGeometry>
        </mxCell>
        <mxCell id="NyUPaynE3EMtB2uFRSFc-24" value="&lt;font style=&quot;font-size: 6px;&quot;&gt;3.3V&lt;/font&gt;" style="edgeLabel;html=1;align=center;verticalAlign=middle;resizable=0;points=[];fontSize=12;" parent="NyUPaynE3EMtB2uFRSFc-23" vertex="1" connectable="0">
          <mxGeometry x="0.1022" relative="1" as="geometry">
            <mxPoint x="-2" y="-14" as="offset" />
          </mxGeometry>
        </mxCell>
        <mxCell id="NyUPaynE3EMtB2uFRSFc-26" value="" style="endArrow=classic;html=1;rounded=0;fontSize=6;endFill=1;entryX=0;entryY=0.75;entryDx=0;entryDy=0;" parent="1" edge="1">
          <mxGeometry width="50" height="50" relative="1" as="geometry">
            <mxPoint x="90" y="225" as="sourcePoint" />
            <mxPoint x="135" y="224.5" as="targetPoint" />
          </mxGeometry>
        </mxCell>
        <mxCell id="EQyaDjutotKaHnsKmeEY-12" value="START" style="edgeLabel;html=1;align=center;verticalAlign=middle;resizable=0;points=[];fontSize=10;" parent="NyUPaynE3EMtB2uFRSFc-26" vertex="1" connectable="0">
          <mxGeometry x="-0.4144" y="1" relative="1" as="geometry">
            <mxPoint x="5" y="-7" as="offset" />
          </mxGeometry>
        </mxCell>
        <mxCell id="NyUPaynE3EMtB2uFRSFc-51" value="" style="endArrow=classic;html=1;rounded=0;fontSize=6;exitX=1;exitY=0.25;exitDx=0;exitDy=0;endFill=1;" parent="1" source="NyUPaynE3EMtB2uFRSFc-4" edge="1">
          <mxGeometry width="50" height="50" relative="1" as="geometry">
            <mxPoint x="160" y="177" as="sourcePoint" />
            <mxPoint x="310" y="160" as="targetPoint" />
          </mxGeometry>
        </mxCell>
        <mxCell id="NyUPaynE3EMtB2uFRSFc-52" value="&lt;font style=&quot;&quot;&gt;&lt;span style=&quot;font-size: 12px;&quot;&gt;SUCCESS&lt;/span&gt;&lt;br&gt;&lt;font style=&quot;font-size: 7px;&quot;&gt;&amp;nbsp;&lt;/font&gt;&lt;br&gt;&lt;span style=&quot;font-size: 12px;&quot;&gt;(on-board LED)&lt;/span&gt;&lt;br&gt;&lt;/font&gt;" style="edgeLabel;html=1;align=center;verticalAlign=middle;resizable=0;points=[];fontSize=6;labelBackgroundColor=none;" parent="NyUPaynE3EMtB2uFRSFc-51" vertex="1" connectable="0">
          <mxGeometry x="0.6982" relative="1" as="geometry">
            <mxPoint x="4" as="offset" />
          </mxGeometry>
        </mxCell>
        <mxCell id="KM2RA54iMA9DWckKqhhu-1" value="" style="endArrow=classic;html=1;rounded=0;fontSize=12;fontColor=#0000FF;strokeColor=#000000;entryX=0;entryY=0.25;entryDx=0;entryDy=0;" parent="1" target="NyUPaynE3EMtB2uFRSFc-4" edge="1">
          <mxGeometry width="50" height="50" relative="1" as="geometry">
            <mxPoint x="90" y="160" as="sourcePoint" />
            <mxPoint x="161" y="100" as="targetPoint" />
          </mxGeometry>
        </mxCell>
        <mxCell id="KM2RA54iMA9DWckKqhhu-2" value="&lt;font style=&quot;font-size: 10px;&quot; color=&quot;#000000&quot;&gt;SYS_CLK&lt;br&gt;&lt;/font&gt;" style="edgeLabel;html=1;align=center;verticalAlign=middle;resizable=0;points=[];fontSize=12;fontColor=#0000FF;labelBackgroundColor=none;" parent="KM2RA54iMA9DWckKqhhu-1" vertex="1" connectable="0">
          <mxGeometry x="-0.9214" y="-1" relative="1" as="geometry">
            <mxPoint x="9" y="-11" as="offset" />
          </mxGeometry>
        </mxCell>
        <mxCell id="eIJb3_RPjEm_Himib9NU-12" value="" style="endArrow=classic;html=1;rounded=0;endFill=1;" parent="1" edge="1">
          <mxGeometry width="50" height="50" relative="1" as="geometry">
            <mxPoint x="265" y="223" as="sourcePoint" />
            <mxPoint x="310" y="223" as="targetPoint" />
          </mxGeometry>
        </mxCell>
        <mxCell id="eIJb3_RPjEm_Himib9NU-16" value="FAIL" style="edgeLabel;html=1;align=center;verticalAlign=middle;resizable=0;points=[];labelBackgroundColor=none;" parent="eIJb3_RPjEm_Himib9NU-12" vertex="1" connectable="0">
          <mxGeometry x="-0.6985" y="-2" relative="1" as="geometry">
            <mxPoint x="31" y="-14" as="offset" />
          </mxGeometry>
        </mxCell>
        <mxCell id="eIJb3_RPjEm_Himib9NU-120" value="" style="endArrow=classic;html=1;rounded=0;fontSize=6;endFill=1;entryX=0;entryY=0.75;entryDx=0;entryDy=0;" parent="1" edge="1">
          <mxGeometry width="50" height="50" relative="1" as="geometry">
            <mxPoint x="90" y="193" as="sourcePoint" />
            <mxPoint x="135" y="192.5" as="targetPoint" />
          </mxGeometry>
        </mxCell>
        <mxCell id="eIJb3_RPjEm_Himib9NU-121" value="RESET" style="edgeLabel;html=1;align=center;verticalAlign=middle;resizable=0;points=[];fontSize=10;" parent="eIJb3_RPjEm_Himib9NU-120" vertex="1" connectable="0">
          <mxGeometry x="-0.4144" y="1" relative="1" as="geometry">
            <mxPoint x="5" y="-7" as="offset" />
          </mxGeometry>
        </mxCell>
      </root>
    </mxGraphModel>
  </diagram>
</mxfile>
